<svg width="72" height="37" viewBox="0 0 72 37" fill="none" xmlns="http://www.w3.org/2000/svg">
<g filter="url(#filter0_d_517_528)">
<path d="M5.45374 26.7472V1.70651H11.9784C14.6473 1.70651 16.6632 2.25686 18.0261 3.35755C19.4003 4.44677 20.0874 6.03474 20.0874 8.12147C20.0874 9.63491 19.7069 10.8904 18.946 11.8879C18.1851 12.8854 17.1118 13.5217 15.7263 13.7969C17.2935 14.0033 18.5996 14.6912 19.6445 15.8607C20.6893 17.0187 21.2118 18.3487 21.2118 19.8507C21.2118 21.9833 20.5247 23.6687 19.1504 24.907C17.7876 26.1338 15.8853 26.7472 13.4435 26.7472H5.45374ZM6.37366 14.3816V25.8185H13.5457C15.6468 25.8185 17.2935 25.2968 18.486 24.2534C19.6899 23.1986 20.2918 21.7425 20.2918 19.8851C20.2918 18.3028 19.7126 17.0015 18.5542 15.9811C17.3958 14.9492 15.8455 14.416 13.9034 14.3816H6.37366ZM6.37366 13.4529H12.3191C14.5792 13.4529 16.2828 13.0172 17.4298 12.1459C18.5769 11.263 19.1504 9.89862 19.1504 8.05267C19.1504 4.49837 16.8279 2.69255 12.1828 2.63522H6.37366V13.4529Z" fill="white"/>
<path d="M44.0737 16.1015C44.0737 18.2684 43.6875 20.1889 42.9152 21.8629C42.1543 23.5254 41.064 24.8152 39.6444 25.7325C38.2247 26.6383 36.5893 27.0912 34.7381 27.0912C31.9443 27.0912 29.6842 26.0879 27.9579 24.0815C26.2316 22.075 25.3685 19.3691 25.3685 15.9639V12.3522C25.3685 10.1967 25.7489 8.28198 26.5099 6.60802C27.2821 4.93405 28.3781 3.64419 29.7978 2.73841C31.2288 1.82117 32.8642 1.36255 34.704 1.36255C36.5552 1.36255 38.1907 1.82117 39.6103 2.73841C41.0413 3.64419 42.143 4.93979 42.9152 6.62522C43.6875 8.29918 44.0737 10.2082 44.0737 12.3522V16.1015ZM43.1537 12.3178C43.1537 9.29095 42.3928 6.86599 40.871 5.04298C39.3491 3.2085 37.2935 2.29126 34.704 2.29126C32.1487 2.29126 30.1101 3.20276 28.5882 5.02578C27.0664 6.83733 26.3054 9.30815 26.3054 12.4382V16.1015C26.3054 18.0965 26.6461 19.8621 27.3276 21.3985C28.0204 22.9234 29.0028 24.0987 30.2748 24.9242C31.5468 25.7497 33.0345 26.1624 34.7381 26.1624C37.3275 26.1624 39.3775 25.2509 40.888 23.4279C42.3985 21.6049 43.1537 19.1169 43.1537 15.9639V12.3178Z" fill="white"/>
<path d="M56.3734 13.2465L64.3802 1.70651H65.5387L56.9527 13.9689L65.8623 26.7472H64.7209L56.3734 14.6912L47.9919 26.7472H46.8846L55.7942 13.9689L47.2082 1.70651H48.3667L56.3734 13.2465Z" fill="white"/>
<path d="M6.87366 25.3185H13.5457C15.5656 25.3185 17.0814 24.8179 18.1565 23.8774L6.87366 25.3185ZM6.87366 25.3185V14.8816H13.899C15.7504 14.9152 17.1741 15.4213 18.2216 16.3544L18.2237 16.3563C19.2713 17.2791 19.7918 18.4423 19.7918 19.8851C19.7918 21.6238 19.2343 22.9329 18.1568 23.8771L6.87366 25.3185ZM43.3696 6.41654C42.5613 4.65266 41.399 3.27938 39.8796 2.31708C38.3719 1.34357 36.6411 0.862549 34.704 0.862549C32.7769 0.862549 31.0464 1.34425 29.5284 2.31718C28.0206 3.27929 26.8642 4.64638 26.0558 6.39856L26.0547 6.40111C25.2596 8.1503 24.8685 10.1375 24.8685 12.3522V15.9639C24.8685 19.4537 25.7544 22.2869 27.5789 24.4076C29.406 26.5312 31.8078 27.5912 34.7381 27.5912C36.6748 27.5912 38.4055 27.1161 39.9133 26.154L39.9157 26.1525L42.9152 21.8629L43.3693 22.0723C43.3694 22.0721 43.3695 22.0719 43.3696 22.0716C44.1768 20.3216 44.5737 18.3279 44.5737 16.1015V12.3522C44.5737 10.1479 44.1765 8.16585 43.3696 6.41654ZM43.3696 6.41654C43.3697 6.41667 43.3697 6.4168 43.3698 6.41694L42.9152 6.62522L43.3693 6.41576C43.3694 6.41602 43.3695 6.41627 43.3696 6.41654ZM4.95374 26.7472V27.2472H5.45374H13.4435C15.9671 27.2472 18.0034 26.6122 19.485 25.2786L19.4851 25.2784C20.9811 23.9305 21.7118 22.101 21.7118 19.8507C21.7118 18.2202 21.1402 16.7724 20.0164 15.5266C19.2895 14.7132 18.4415 14.1145 17.4781 13.7328C18.2158 13.3634 18.8405 12.8506 19.3435 12.1911C20.1838 11.0897 20.5874 9.72123 20.5874 8.12147C20.5874 5.91532 19.8544 4.16962 18.3385 2.96716C16.8507 1.76649 14.7036 1.20651 11.9784 1.20651H5.45374H4.95374V1.70651V26.7472ZM40.4861 5.36222L40.4871 5.3634C41.9153 7.07414 42.6537 9.37519 42.6537 12.3178V15.9639C42.6537 19.0393 41.9177 21.4016 40.503 23.1089C39.0971 24.8056 37.1945 25.6624 34.7381 25.6624C33.1188 25.6624 31.7282 25.2714 30.5469 24.5048C29.3638 23.7369 28.4412 22.6402 27.7837 21.1937C27.136 19.7324 26.8054 18.0386 26.8054 16.1015V12.4382C26.8054 9.38741 27.5464 7.04329 28.9711 5.3474L28.9721 5.3462C30.391 3.64649 32.2841 2.79126 34.704 2.79126C37.1593 2.79126 39.0682 3.65303 40.4861 5.36222ZM48.4024 27.0326L56.3726 15.5683L64.3099 27.0318L64.459 27.2472H64.7209H65.8623H66.8205L66.2725 26.4612L57.5626 13.9695L65.9482 1.9933L66.4991 1.20651H65.5387H64.3802H64.1186L63.9694 1.42149L56.3735 12.3694L48.7775 1.42149L48.6283 1.20651H48.3667H47.2082H46.2478L46.7987 1.9933L55.1843 13.9695L46.4744 26.4612L45.9264 27.2472H46.8846H47.9919H48.2532L48.4024 27.0326ZM12.3191 12.9529H6.87366V3.13522H12.1797C14.4505 3.16364 16.064 3.62054 17.1016 4.4273C18.1154 5.21549 18.6504 6.39405 18.6504 8.05267C18.6504 9.78953 18.1165 10.9857 17.1261 11.7487C16.1031 12.5252 14.5272 12.9529 12.3191 12.9529Z" stroke="black"/>
</g>
<defs>
<filter id="filter0_d_517_528" x="0.453735" y="0.362549" width="71.3249" height="35.7285" filterUnits="userSpaceOnUse" color-interpolation-filters="sRGB">
<feFlood flood-opacity="0" result="BackgroundImageFix"/>
<feColorMatrix in="SourceAlpha" type="matrix" values="0 0 0 0 0 0 0 0 0 0 0 0 0 0 0 0 0 0 127 0" result="hardAlpha"/>
<feOffset dy="4"/>
<feGaussianBlur stdDeviation="2"/>
<feComposite in2="hardAlpha" operator="out"/>
<feColorMatrix type="matrix" values="0 0 0 0 0 0 0 0 0 0 0 0 0 0 0 0 0 0 0.25 0"/>
<feBlend mode="normal" in2="BackgroundImageFix" result="effect1_dropShadow_517_528"/>
<feBlend mode="normal" in="SourceGraphic" in2="effect1_dropShadow_517_528" result="shape"/>
</filter>
</defs>
</svg>
