<svg width="190" height="37" viewBox="0 0 190 37" fill="none" xmlns="http://www.w3.org/2000/svg">
<path d="M16.0136 22.0865H7.81939L6.38839 26.7644H0L9.09706 1.72371H14.7188L23.884 26.7644H17.4616L16.0136 22.0865ZM9.25038 17.4257H14.5826L11.908 8.74061L9.25038 17.4257Z" fill="#656980"/>
<path d="M45.4001 18.2856C45.3206 20.0284 44.855 21.5705 44.0032 22.912C43.1514 24.242 41.9532 25.2739 40.4087 26.0077C38.8755 26.7415 37.1208 27.1084 35.1446 27.1084C31.8851 27.1084 29.3184 26.0363 27.4445 23.8923C25.5706 21.7482 24.6336 18.7213 24.6336 14.8116V13.5733C24.6336 11.1197 25.0538 8.97565 25.8943 7.14117C26.746 5.29522 27.9669 3.8735 29.5569 2.876C31.1469 1.86703 32.9868 1.36255 35.0765 1.36255C38.0861 1.36255 40.5052 2.16513 42.3337 3.77031C44.1622 5.36401 45.2014 7.56539 45.4512 10.3744H39.4887C39.4433 8.84953 39.0629 7.75457 38.3474 7.08957C37.6319 6.42457 36.5416 6.09207 35.0765 6.09207C33.5887 6.09207 32.4984 6.65388 31.8056 7.7775C31.1129 8.90112 30.7494 10.6955 30.7154 13.1606V14.932C30.7154 17.6034 31.0447 19.5125 31.7034 20.659C32.3735 21.8056 33.5206 22.3788 35.1446 22.3788C36.5189 22.3788 37.5694 22.0521 38.2962 21.3985C39.0231 20.745 39.4092 19.7074 39.4547 18.2856H45.4001Z" fill="#656980"/>
<path d="M67.1888 6.38444H59.7442V26.7644H53.7647V6.38444H46.4563V1.72371H67.1888V6.38444Z" fill="#656980"/>
<path d="M76.0985 26.7644H70.136V1.72371H76.0985V26.7644Z" fill="#656980"/>
<path d="M89.8803 19.9539L94.8207 1.72371H101.499L93.1512 26.7644H86.6095L78.3301 1.72371H84.957L89.8803 19.9539Z" fill="#656980"/>
<path d="M118.705 16.1531H109.301V22.1209H120.408V26.7644H103.322V1.72371H120.442V6.38444H109.301V11.6643H118.705V16.1531Z" fill="#656980"/>
<g filter="url(#filter0_d_130389_15)">
<path d="M123.454 26.7472V1.70651H129.978C132.647 1.70651 134.663 2.25686 136.026 3.35755C137.4 4.44677 138.087 6.03474 138.087 8.12147C138.087 9.63491 137.707 10.8904 136.946 11.8879C136.185 12.8854 135.112 13.5217 133.726 13.7969C135.294 14.0033 136.6 14.6912 137.644 15.8607C138.689 17.0187 139.212 18.3487 139.212 19.8507C139.212 21.9833 138.525 23.6687 137.15 24.907C135.788 26.1338 133.885 26.7472 131.443 26.7472H123.454ZM124.374 14.3816V25.8185H131.546C133.647 25.8185 135.294 25.2968 136.486 24.2534C137.69 23.1986 138.292 21.7425 138.292 19.8851C138.292 18.3028 137.713 17.0015 136.554 15.9811C135.396 14.9492 133.846 14.416 131.903 14.3816H124.374ZM124.374 13.4529H130.319C132.579 13.4529 134.283 13.0172 135.43 12.1459C136.577 11.263 137.15 9.89862 137.15 8.05267C137.15 4.49837 134.828 2.69255 130.183 2.63522H124.374V13.4529Z" fill="white"/>
<path d="M162.074 16.1015C162.074 18.2684 161.688 20.1889 160.915 21.8629C160.154 23.5254 159.064 24.8152 157.644 25.7325C156.225 26.6383 154.589 27.0912 152.738 27.0912C149.944 27.0912 147.684 26.0879 145.958 24.0815C144.232 22.075 143.368 19.3691 143.368 15.9639V12.3522C143.368 10.1967 143.749 8.28198 144.51 6.60802C145.282 4.93405 146.378 3.64419 147.798 2.73841C149.229 1.82117 150.864 1.36255 152.704 1.36255C154.555 1.36255 156.191 1.82117 157.61 2.73841C159.041 3.64419 160.143 4.93979 160.915 6.62522C161.688 8.29918 162.074 10.2082 162.074 12.3522V16.1015ZM161.154 12.3178C161.154 9.29095 160.393 6.86599 158.871 5.04298C157.349 3.2085 155.293 2.29126 152.704 2.29126C150.149 2.29126 148.11 3.20276 146.588 5.02578C145.066 6.83733 144.305 9.30815 144.305 12.4382V16.1015C144.305 18.0965 144.646 19.8621 145.328 21.3985C146.02 22.9234 147.003 24.0987 148.275 24.9242C149.547 25.7497 151.035 26.1624 152.738 26.1624C155.328 26.1624 157.377 25.2509 158.888 23.4279C160.398 21.6049 161.154 19.1169 161.154 15.9639V12.3178Z" fill="white"/>
<path d="M174.373 13.2465L182.38 1.70651H183.539L174.953 13.9689L183.862 26.7472H182.721L174.373 14.6912L165.992 26.7472H164.885L173.794 13.9689L165.208 1.70651H166.367L174.373 13.2465Z" fill="white"/>
<path d="M122.954 26.7472V27.2472H123.454H131.443C133.967 27.2472 136.003 26.6122 137.485 25.2786L137.485 25.2784C138.981 23.9305 139.712 22.101 139.712 19.8507C139.712 18.2203 139.14 16.7725 138.017 15.5268C137.29 14.7133 136.442 14.1146 135.478 13.7328C136.216 13.3634 136.84 12.8506 137.344 12.1911C138.184 11.0897 138.587 9.72123 138.587 8.12147C138.587 5.9153 137.854 4.16957 136.338 2.96711C134.851 1.76647 132.704 1.20651 129.978 1.20651H123.454H122.954V1.70651V26.7472ZM136.222 16.3544L136.224 16.3563C137.271 17.2791 137.792 18.4423 137.792 19.8851C137.792 21.6238 137.234 22.9329 136.157 23.8771C135.082 24.8178 133.566 25.3185 131.546 25.3185H124.874V14.8816H131.899C133.75 14.9152 135.174 15.4213 136.222 16.3544ZM157.913 26.154L157.916 26.1525C159.422 25.1795 160.572 23.8135 161.369 22.0723C162.177 20.3222 162.574 18.3282 162.574 16.1015V12.3522C162.574 10.1476 162.176 8.16526 161.369 6.41576C160.561 4.65233 159.399 3.27936 157.88 2.31721C156.372 1.34361 154.641 0.862549 152.704 0.862549C150.777 0.862549 149.046 1.34425 147.528 2.31718C146.021 3.27929 144.864 4.64638 144.056 6.39856L144.055 6.40111C143.26 8.1503 142.868 10.1375 142.868 12.3522V15.9639C142.868 19.4537 143.754 22.2869 145.579 24.4076C147.406 26.5312 149.808 27.5912 152.738 27.5912C154.675 27.5912 156.405 27.1161 157.913 26.154ZM158.486 5.36222L158.487 5.3634C159.915 7.07414 160.654 9.37519 160.654 12.3178V15.9639C160.654 19.0393 159.918 21.4016 158.503 23.1089C157.097 24.8056 155.194 25.6624 152.738 25.6624C151.119 25.6624 149.728 25.2714 148.547 24.5048C147.364 23.7369 146.441 22.6402 145.784 21.1939C145.136 19.7326 144.805 18.0386 144.805 16.1015V12.4382C144.805 9.38741 145.546 7.04329 146.971 5.3474L146.972 5.3462C148.391 3.64649 150.284 2.79125 152.704 2.79125C155.159 2.79125 157.068 3.65303 158.486 5.36222ZM166.402 27.0326L174.373 15.5683L182.31 27.0318L182.459 27.2472H182.721H183.862H184.82L184.272 26.4612L175.563 13.9695L183.948 1.9933L184.499 1.20651H183.539H182.38H182.119L181.969 1.42149L174.373 12.3694L166.777 1.42149L166.628 1.20651H166.367H165.208H164.248L164.799 1.9933L173.184 13.9695L164.474 26.4612L163.926 27.2472H164.885H165.992H166.253L166.402 27.0326ZM130.319 12.9529H124.874V3.13522H130.18C132.45 3.16364 134.064 3.62054 135.102 4.4273C136.115 5.21549 136.65 6.39405 136.65 8.05267C136.65 9.78953 136.117 10.9857 135.126 11.7487C134.103 12.5252 132.527 12.9529 130.319 12.9529Z" stroke="black"/>
</g>
<defs>
<filter id="filter0_d_130389_15" x="118.454" y="0.362549" width="71.3249" height="35.7285" filterUnits="userSpaceOnUse" color-interpolation-filters="sRGB">
<feFlood flood-opacity="0" result="BackgroundImageFix"/>
<feColorMatrix in="SourceAlpha" type="matrix" values="0 0 0 0 0 0 0 0 0 0 0 0 0 0 0 0 0 0 127 0" result="hardAlpha"/>
<feOffset dy="4"/>
<feGaussianBlur stdDeviation="2"/>
<feComposite in2="hardAlpha" operator="out"/>
<feColorMatrix type="matrix" values="0 0 0 0 0 0 0 0 0 0 0 0 0 0 0 0 0 0 0.25 0"/>
<feBlend mode="normal" in2="BackgroundImageFix" result="effect1_dropShadow_130389_15"/>
<feBlend mode="normal" in="SourceGraphic" in2="effect1_dropShadow_130389_15" result="shape"/>
</filter>
</defs>
</svg>
